<svg width="80" height="80" viewBox="0 0 80 80" fill="none" xmlns="http://www.w3.org/2000/svg">
<path d="M40 0C18 0 0 18 0 40C0 62 18 80 40 80C62 80 80 62 80 40C80 18 62 0 40 0ZM7.25 27.5C12.25 14.25 25 5 40 5C55 5 67.75 14.5 72.75 27.5C74.25 31.5 70.75 35.75 66.5 34.5L58.5 32.5H58.25H57.75C46 29.5 33.75 29.5 22.25 32.5H21.75L21.5 32.75L13.5 34.75C9.25 35.75 5.75 31.5 7.25 27.5ZM37.25 68.5C37.25 72 34 74.5 30.5 73.5C18 70 8.25 59.75 5.75 46.75C5.25 44 7 41.25 9.75 40.5C16.25 39 23 40.75 27.5 45.5L32 50C35.5 53.5 37.25 58.25 37.25 63.25V68.5ZM35.75 40.75C35.75 38.25 37.75 36.25 40.25 36.25C42.75 36.25 44.75 38.25 44.75 40.75C44.75 43.25 42.75 45.25 40.25 45.25C37.75 45.25 35.75 43.25 35.75 40.75ZM49.25 73.75C45.75 74.75 42.25 72.25 42.25 68.75V63.75C42.25 58.75 44.25 54 47.75 50.5L52.25 46C57 41.25 63.75 39.5 70.25 41C73 41.75 74.75 44.5 74.25 47.25C71.5 60 61.75 70.25 49.25 73.75Z" fill="#FFA800"/>
<circle cx="40" cy="41" r="5" fill="#FFA800"/>
</svg>
