<svg width="84" height="84" viewBox="0 0 84 84" fill="none" xmlns="http://www.w3.org/2000/svg">
<path d="M41.9999 0.333313C65.0116 0.333313 83.6666 18.9881 83.6666 42C83.6666 65.0117 65.0116 83.6667 41.9999 83.6667C18.988 83.6667 0.333252 65.0117 0.333252 42C0.333252 18.9881 18.988 0.333313 41.9999 0.333313ZM25.3333 46.1666L8.92496 46.1708C10.8068 61.2467 22.7567 73.1954 37.8333 75.0754V58.6667C30.9297 58.6667 25.3333 53.0704 25.3333 46.1666ZM75.0749 46.1708L58.6666 46.1666C58.6666 53.0704 53.0703 58.6667 46.1666 58.6667L46.1708 75.075C61.2453 73.1933 73.1933 61.2454 75.0749 46.1708ZM41.9999 8.66665C25.0015 8.66665 10.9748 21.3904 8.92446 37.8333H25.3333C25.3333 35.5321 27.1988 33.6666 29.4999 33.6666H54.4999C56.8012 33.6666 58.6666 35.5321 58.6666 37.8333H75.0753C73.0249 21.3904 58.9983 8.66665 41.9999 8.66665Z" fill="#EF3F18"/>
</svg>
